<svg xmlns="http://www.w3.org/2000/svg" version="1.1" xmlns:xlink="http://www.w3.org/1999/xlink" xmlns:svgjs="http://svgjs.dev/svgjs" viewBox="0 0 800 800" opacity="1"><defs><linearGradient x1="50%" y1="0%" x2="50%" y2="100%" id="nnneon-grad"><stop stop-color="hsl(180, 69%, 40%)" stop-opacity="1" offset="0%"></stop><stop stop-color="hsl(180, 69%, 60%)" stop-opacity="1" offset="100%"></stop></linearGradient><filter id="nnneon-filter" x="-100%" y="-100%" width="400%" height="400%" filterUnits="objectBoundingBox" primitiveUnits="userSpaceOnUse" color-interpolation-filters="sRGB">
	<feGaussianBlur stdDeviation="7 8" x="0%" y="0%" width="100%" height="100%" in="SourceGraphic" edgeMode="none" result="blur"></feGaussianBlur></filter><filter id="nnneon-filter2" x="-100%" y="-100%" width="400%" height="400%" filterUnits="objectBoundingBox" primitiveUnits="userSpaceOnUse" color-interpolation-filters="sRGB">
	<feGaussianBlur stdDeviation="1 6" x="0%" y="0%" width="100%" height="100%" in="SourceGraphic" edgeMode="none" result="blur"></feGaussianBlur></filter></defs><g stroke-width="44" stroke="url(#nnneon-grad)" fill="none"><path d="M400 78.41635131835938L678.5000177959703 239.20817708737167V560.7918286253962L400 721.5836543944085L121.49998220402972 560.7918286253962V239.20817708737167L400 78.41635131835938Z " filter="url(#nnneon-filter)"></path><path d="M403 78.41635131835938L681.5000177959703 239.20817708737167V560.7918286253962L403 721.5836543944085L124.49998220402972 560.7918286253962V239.20817708737167L403 78.41635131835938Z " filter="url(#nnneon-filter2)" opacity="0.25"></path><path d="M397 78.41635131835938L675.5000177959703 239.20817708737167V560.7918286253962L397 721.5836543944085L118.49998220402972 560.7918286253962V239.20817708737167L397 78.41635131835938Z " filter="url(#nnneon-filter2)" opacity="0.25"></path><path d="M400 78.41635131835938L678.5000177959703 239.20817708737167V560.7918286253962L400 721.5836543944085L121.49998220402972 560.7918286253962V239.20817708737167L400 78.41635131835938Z "></path></g></svg>